<svg width="16" height="18" viewBox="0 0 16 18" fill="none" xmlns="http://www.w3.org/2000/svg">
<path d="M1.5 4.41211H2.94444H14.5" stroke="#9499A7" stroke-width="2" stroke-linecap="round" stroke-linejoin="round"/>
<path d="M14.2361 4.8635C14.2361 4.31121 13.7884 3.8635 13.2361 3.8635C12.6838 3.8635 12.2361 4.31121 12.2361 4.8635H14.2361ZM4.125 4.8635C4.125 4.31121 3.67728 3.8635 3.125 3.8635C2.57272 3.8635 2.125 4.31121 2.125 4.8635H4.125ZM4.29441 4.051C4.29441 4.60328 4.74213 5.051 5.29441 5.051C5.8467 5.051 6.29441 4.60328 6.29441 4.051H4.29441ZM10.0722 4.051C10.0722 4.60328 10.5199 5.051 11.0722 5.051C11.6245 5.051 12.0722 4.60328 12.0722 4.051H10.0722ZM12.2361 4.8635V14.9746H14.2361V4.8635H12.2361ZM12.2361 14.9746C12.2361 15.2201 12.0371 15.4191 11.7917 15.4191V17.4191C13.1417 17.4191 14.2361 16.3246 14.2361 14.9746H12.2361ZM11.7917 15.4191H4.56944V17.4191H11.7917V15.4191ZM4.56944 15.4191C4.32398 15.4191 4.125 15.2201 4.125 14.9746H2.125C2.125 16.3246 3.21941 17.4191 4.56944 17.4191V15.4191ZM4.125 14.9746V4.8635H2.125V14.9746H4.125ZM6.29441 4.051V2.60655H4.29441V4.051H6.29441ZM6.29441 2.60655C6.29441 2.36109 6.4934 2.16211 6.73886 2.16211V0.162109C5.38883 0.162109 4.29441 1.25652 4.29441 2.60655H6.29441ZM6.73886 2.16211H9.62774V0.162109H6.73886V2.16211ZM9.62774 2.16211C9.8732 2.16211 10.0722 2.36109 10.0722 2.60655H12.0722C12.0722 1.25652 10.9778 0.162109 9.62774 0.162109V2.16211ZM10.0722 2.60655V4.051H12.0722V2.60655H10.0722Z" fill="#9499A7"/>
</svg>
