<svg width="24" height="24" viewBox="0 0 24 24" fill="none" xmlns="http://www.w3.org/2000/svg">
<path d="M12 9.09577C12 9.19528 11.9629 9.29121 11.896 9.36484C11.7474 9.5283 11.4944 9.54035 11.3309 9.39175L7.04262 5.49329C7.02697 5.47906 7.01201 5.46409 6.99778 5.44844C6.75011 5.176 6.77018 4.75437 7.04262 4.5067L11.3309 0.608235C11.4046 0.5413 11.5005 0.504211 11.6 0.504211C11.8209 0.504211 12 0.683298 12 0.904211L12 3.99999C16.4183 3.99999 20 7.58171 20 12C20 16.4183 16.4183 20 12 20C7.58172 20 4 16.4183 4 12C4 11.4477 4.44772 11 5 11C5.55228 11 6 11.4477 6 12C6 15.3137 8.68629 18 12 18C15.3137 18 18 15.3137 18 12C18 8.68628 15.3137 5.99999 12 5.99999L12 9.09577Z" fill="#99A2AD"/>
</svg>
