<?xml version="1.0" encoding="UTF-8" standalone="no"?>
<svg width="20px" height="20px" viewBox="0 0 20 20" version="1.1" xmlns="http://www.w3.org/2000/svg" xmlns:xlink="http://www.w3.org/1999/xlink">
    <!-- Generator: Sketch 50.2 (55047) - http://www.bohemiancoding.com/sketch -->
    <title>Group 10</title>
    <desc>Created with Sketch.</desc>
    <defs></defs>
    <g id="Лагеря" stroke="none" stroke-width="1" fill="none" fill-rule="evenodd">
        <g id="cb" transform="translate(-384.000000, -541.000000)">
            <g id="Group-Copy" transform="translate(373.000000, 531.000000)">
                <g id="Group-7" transform="translate(12.000000, 11.000000)">
                    <g id="Group-10">
                        <rect id="Rectangle" stroke="#1D7373" stroke-width="2" x="0" y="0" width="18" height="18" rx="2"></rect>
                        <path d="M5.65685425,8.65685425 L12.6568542,8.65685425 C13.209139,8.65685425 13.6568542,9.1045695 13.6568542,9.65685425 C13.6568542,10.209139 13.209139,10.6568542 12.6568542,10.6568542 L4.65685425,10.6568542 C4.38071187,10.6568542 4.13071187,10.5449254 3.94974747,10.363961 C3.76878306,10.1829966 3.65685425,9.93299662 3.65685425,9.65685425 L3.65685425,5.65685425 C3.65685425,5.1045695 4.1045695,4.65685425 4.65685425,4.65685425 C5.209139,4.65685425 5.65685425,5.1045695 5.65685425,5.65685425 L5.65685425,8.65685425 Z" id="Combined-Shape" fill="#1D7373" transform="translate(8.656854, 7.656854) rotate(-45.000000) translate(-8.656854, -7.656854) "></path>
                    </g>
                </g>
            </g>
        </g>
    </g>
</svg>